<mxfile host="app.diagrams.net" modified="2024-06-15T01:46:11.853Z" agent="Mozilla/5.0 (Macintosh; Intel Mac OS X 10_15_7) AppleWebKit/605.1.15 (KHTML, like Gecko) Version/17.5 Safari/605.1.15" version="24.5.4" etag="1HpCduUvaGT4Y5wOLRIQ" type="github">
  <diagram name="Page-1" id="Jt3k4Ru0ia7N3W0TvY6A">
    <mxGraphModel>
      <root>
        <mxCell id="0" />
        <mxCell id="1" parent="0" />
      </root>
    </mxGraphModel>
  </diagram>
</mxfile>
